<?xml version="1.0" encoding="UTF-8" standalone="no"?>
<!-- Uploaded to: SVG Repo, www.svgrepo.com, Generator: SVG Repo Mixer Tools -->

<svg
   width="800px"
   height="800px"
   viewBox="0 0 1024 1024"
   class="icon"
   version="1.1"
   id="svg8"
   sodipodi:docname="icon.svg"
   inkscape:version="1.2.2 (732a01da63, 2022-12-09)"
   xmlns:inkscape="http://www.inkscape.org/namespaces/inkscape"
   xmlns:sodipodi="http://sodipodi.sourceforge.net/DTD/sodipodi-0.dtd"
   xmlns="http://www.w3.org/2000/svg"
   xmlns:svg="http://www.w3.org/2000/svg">
  <defs
     id="defs12" />
  <sodipodi:namedview
     id="namedview10"
     pagecolor="#505050"
     bordercolor="#eeeeee"
     borderopacity="1"
     inkscape:showpageshadow="0"
     inkscape:pageopacity="0"
     inkscape:pagecheckerboard="0"
     inkscape:deskcolor="#505050"
     showgrid="false"
     inkscape:zoom="0.1721875"
     inkscape:cx="-740.47187"
     inkscape:cy="-168.42105"
     inkscape:window-width="1366"
     inkscape:window-height="705"
     inkscape:window-x="-8"
     inkscape:window-y="32"
     inkscape:window-maximized="1"
     inkscape:current-layer="svg8" />
  <path
     d="M725.333333 576c-152.917333 0-277.333333-124.416-277.333333-277.333333S572.416 21.333333 725.333333 21.333333h21.333334v21.333334c0 129.386667 105.28 234.666667 234.666666 234.666666h21.333334v21.333334c0 152.917333-124.416 277.333333-277.333334 277.333333z"
     fill="#EFD358"
     id="path2"
     style="fill:#ffb72a;fill-opacity:1" />
  <path
     d="M810.666667 789.333333H213.333333c-105.856 0-192-86.122667-192-192s86.144-192 192-192c17.322667 0 34.624 2.453333 51.669334 7.338667A256.128 256.128 0 0 1 490.666667 277.333333a255.786667 255.786667 0 0 1 232.533333 149.290667A189.653333 189.653333 0 0 1 810.666667 405.333333c105.856 0 192 86.122667 192 192s-86.144 192-192 192z"
     fill="#666666"
     id="path4"
     style="fill:#f9f9f9" />
  <path
     d="M659.328 716.288A21.333333 21.333333 0 0 0 640 704h-139.157333l73.642666-184.085333a21.333333 21.333333 0 0 0-36.202666-21.589334l-213.333334 256A21.333333 21.333333 0 0 0 341.333333 789.333333h139.157334l-73.642667 184.085334a21.333333 21.333333 0 0 0 36.202667 21.589333l213.333333-256a21.333333 21.333333 0 0 0 2.944-22.72z"
     fill="#EFD358"
     id="path6"
     style="fill:#ffb72a;fill-opacity:1" />
</svg>
